G75*
%MOIN*%
%OFA0B0*%
%FSLAX24Y24*%
%IPPOS*%
%LPD*%
%AMOC8*
5,1,8,0,0,1.08239X$1,22.5*
%
%ADD10C,0.0050*%
%ADD11C,0.0060*%
D10*
X000975Y002675D02*
X001209Y002909D01*
X001209Y002967D01*
X001150Y003025D01*
X001033Y003025D01*
X000975Y002967D01*
X000975Y002675D02*
X001209Y002675D01*
X001343Y002733D02*
X001402Y002675D01*
X001518Y002675D01*
X001577Y002733D01*
X001577Y002850D01*
X001518Y002909D01*
X001460Y002909D01*
X001343Y002850D01*
X001343Y003025D01*
X001577Y003025D01*
X001577Y003275D02*
X001343Y003275D01*
X001460Y003275D02*
X001460Y003625D01*
X001343Y003509D01*
X001209Y003275D02*
X000975Y003275D01*
X001092Y003275D02*
X001092Y003625D01*
X000975Y003509D01*
X000975Y003885D02*
X000975Y004119D01*
X001092Y004235D01*
X001209Y004119D01*
X001209Y003885D01*
X001209Y004060D02*
X000975Y004060D01*
X001343Y004235D02*
X001577Y004235D01*
X001460Y004235D02*
X001460Y003885D01*
X001712Y004119D02*
X001828Y004119D01*
X001770Y004177D02*
X001770Y003943D01*
X001828Y003885D01*
X001957Y003885D02*
X002074Y003885D01*
X002016Y003885D02*
X002016Y004119D01*
X001957Y004119D01*
X002016Y004235D02*
X002016Y004294D01*
X002203Y004119D02*
X002378Y004119D01*
X002436Y004060D01*
X002436Y003885D01*
X002571Y003943D02*
X002629Y003885D01*
X002805Y003885D01*
X002805Y003827D02*
X002746Y003768D01*
X002688Y003768D01*
X002805Y003827D02*
X002805Y004119D01*
X002571Y004119D02*
X002571Y003943D01*
X002623Y003625D02*
X002507Y003625D01*
X002448Y003567D01*
X002623Y003625D02*
X002682Y003567D01*
X002682Y003509D01*
X002448Y003275D01*
X002682Y003275D01*
X002817Y003275D02*
X003050Y003625D01*
X003185Y003509D02*
X003302Y003625D01*
X003302Y003275D01*
X003418Y003275D02*
X003185Y003275D01*
X003243Y003025D02*
X003360Y003025D01*
X003418Y002967D01*
X003418Y002909D01*
X003360Y002850D01*
X003243Y002850D01*
X003185Y002909D01*
X003185Y002967D01*
X003243Y003025D01*
X003243Y002850D02*
X003185Y002792D01*
X003185Y002733D01*
X003243Y002675D01*
X003360Y002675D01*
X003418Y002733D01*
X003418Y002792D01*
X003360Y002850D01*
X003553Y002850D02*
X003553Y003025D01*
X003787Y003025D01*
X003728Y002909D02*
X003787Y002850D01*
X003787Y002733D01*
X003728Y002675D01*
X003612Y002675D01*
X003553Y002733D01*
X003553Y002850D02*
X003670Y002909D01*
X003728Y002909D01*
X003728Y003275D02*
X003612Y003275D01*
X003553Y003333D01*
X003670Y003450D02*
X003728Y003450D01*
X003787Y003392D01*
X003787Y003333D01*
X003728Y003275D01*
X003728Y003450D02*
X003787Y003509D01*
X003787Y003567D01*
X003728Y003625D01*
X003612Y003625D01*
X003553Y003567D01*
X003050Y003025D02*
X002817Y002675D01*
X002682Y002733D02*
X002623Y002675D01*
X002507Y002675D01*
X002448Y002733D01*
X002448Y002850D02*
X002565Y002909D01*
X002623Y002909D01*
X002682Y002850D01*
X002682Y002733D01*
X002448Y002850D02*
X002448Y003025D01*
X002682Y003025D01*
X002313Y002850D02*
X002080Y002850D01*
X002255Y003025D01*
X002255Y002675D01*
X001945Y003025D02*
X001712Y002675D01*
X001712Y003275D02*
X001945Y003625D01*
X002080Y003509D02*
X002197Y003625D01*
X002197Y003275D01*
X002313Y003275D02*
X002080Y003275D01*
X002203Y003885D02*
X002203Y004119D01*
X004675Y003971D02*
X004850Y003796D01*
X004850Y004029D01*
X005025Y003971D02*
X004675Y003971D01*
X004967Y003670D02*
X005025Y003670D01*
X005025Y003612D01*
X004967Y003612D01*
X004967Y003670D01*
X004967Y003477D02*
X004733Y003477D01*
X004967Y003243D01*
X005025Y003302D01*
X005025Y003418D01*
X004967Y003477D01*
X004733Y003477D02*
X004675Y003418D01*
X004675Y003302D01*
X004733Y003243D01*
X004967Y003243D01*
X005025Y003109D02*
X004908Y002992D01*
X004908Y003050D02*
X004908Y002875D01*
X005025Y002875D02*
X004675Y002875D01*
X004675Y003050D01*
X004733Y003109D01*
X004850Y003109D01*
X004908Y003050D01*
X005350Y003350D02*
X007350Y003350D01*
X007350Y006350D01*
X005350Y006350D01*
X005050Y006350D01*
X005050Y005350D01*
X005350Y005350D01*
X005350Y006350D01*
X005350Y003350D01*
X005169Y001739D02*
X007531Y001739D01*
X007531Y001719D02*
X007531Y001483D01*
X006941Y001345D02*
X005759Y001345D01*
X005759Y000755D01*
X006941Y000755D01*
X006941Y001345D01*
X007531Y000617D02*
X007531Y000381D01*
X007531Y000361D02*
X005169Y000361D01*
X005169Y000381D02*
X005169Y000617D01*
X005169Y001483D02*
X005169Y001719D01*
X005050Y005388D02*
X005350Y005388D01*
X005350Y005437D02*
X005050Y005437D01*
X005050Y005485D02*
X005350Y005485D01*
X005350Y005534D02*
X005050Y005534D01*
X005050Y005582D02*
X005350Y005582D01*
X005350Y005631D02*
X005050Y005631D01*
X005050Y005679D02*
X005350Y005679D01*
X005350Y005728D02*
X005050Y005728D01*
X005050Y005776D02*
X005350Y005776D01*
X005350Y005825D02*
X005050Y005825D01*
X005050Y005873D02*
X005350Y005873D01*
X005350Y005922D02*
X005050Y005922D01*
X005050Y005970D02*
X005350Y005970D01*
X005350Y006019D02*
X005050Y006019D01*
X005050Y006067D02*
X005350Y006067D01*
X005350Y006116D02*
X005050Y006116D01*
X005050Y006164D02*
X005350Y006164D01*
X005350Y006213D02*
X005050Y006213D01*
X005050Y006261D02*
X005350Y006261D01*
X005350Y006310D02*
X005050Y006310D01*
D11*
X004350Y002250D02*
X000350Y002250D01*
X000350Y003100D01*
X000380Y003102D01*
X000410Y003107D01*
X000439Y003116D01*
X000466Y003129D01*
X000492Y003144D01*
X000516Y003163D01*
X000537Y003184D01*
X000556Y003208D01*
X000571Y003234D01*
X000584Y003261D01*
X000593Y003290D01*
X000598Y003320D01*
X000600Y003350D01*
X000598Y003380D01*
X000593Y003410D01*
X000584Y003439D01*
X000571Y003466D01*
X000556Y003492D01*
X000537Y003516D01*
X000516Y003537D01*
X000492Y003556D01*
X000466Y003571D01*
X000439Y003584D01*
X000410Y003593D01*
X000380Y003598D01*
X000350Y003600D01*
X000350Y004450D01*
X004350Y004450D01*
X004350Y002250D01*
X005380Y002274D02*
X005380Y001980D01*
X005380Y002127D02*
X005527Y002274D01*
X005600Y002274D01*
X005764Y002200D02*
X005837Y002274D01*
X005984Y002274D01*
X006057Y002200D01*
X006057Y002127D01*
X005764Y002127D01*
X005764Y002200D02*
X005764Y002053D01*
X005837Y001980D01*
X005984Y001980D01*
X006224Y001980D02*
X006444Y001980D01*
X006518Y002053D01*
X006444Y002127D01*
X006297Y002127D01*
X006224Y002200D01*
X006297Y002274D01*
X006518Y002274D01*
X006684Y002200D02*
X006758Y002274D01*
X006905Y002274D01*
X006978Y002200D01*
X006978Y002127D01*
X006684Y002127D01*
X006684Y002200D02*
X006684Y002053D01*
X006758Y001980D01*
X006905Y001980D01*
X007218Y002053D02*
X007292Y001980D01*
X007218Y002053D02*
X007218Y002347D01*
X007145Y002274D02*
X007292Y002274D01*
X007726Y002314D02*
X007726Y002461D01*
X007800Y002534D01*
X007873Y002534D01*
X007873Y002240D01*
X007800Y002240D02*
X007726Y002314D01*
X007800Y002240D02*
X007947Y002240D01*
X008020Y002314D01*
X008020Y002461D01*
X008020Y002701D02*
X007947Y002701D01*
X007653Y002994D01*
X007580Y002994D01*
X007580Y002701D01*
X008020Y002701D02*
X008020Y002994D01*
X007947Y003161D02*
X007800Y003161D01*
X007726Y003235D01*
X007726Y003381D01*
X007800Y003455D01*
X007873Y003455D01*
X007873Y003161D01*
X007947Y003161D02*
X008020Y003235D01*
X008020Y003381D01*
X007947Y003622D02*
X007800Y003622D01*
X007726Y003695D01*
X007726Y003842D01*
X007800Y003915D01*
X007873Y003915D01*
X007873Y003622D01*
X007947Y003622D02*
X008020Y003695D01*
X008020Y003842D01*
X007580Y004542D02*
X007580Y004836D01*
X007580Y004689D02*
X008020Y004689D01*
X008020Y005003D02*
X008020Y005150D01*
X008020Y005076D02*
X007726Y005076D01*
X007726Y005003D01*
X007580Y005076D02*
X007506Y005076D01*
X007726Y005310D02*
X007726Y005530D01*
X007800Y005603D01*
X008020Y005603D01*
X007947Y005770D02*
X008020Y005843D01*
X008020Y006064D01*
X008093Y006064D02*
X008167Y005990D01*
X008167Y005917D01*
X008093Y006064D02*
X007726Y006064D01*
X007726Y005770D02*
X007947Y005770D01*
X008020Y005310D02*
X007726Y005310D01*
X007800Y002074D02*
X007873Y002074D01*
X007873Y001780D01*
X007800Y001780D02*
X007726Y001853D01*
X007726Y002000D01*
X007800Y002074D01*
X008020Y002000D02*
X008020Y001853D01*
X007947Y001780D01*
X007800Y001780D01*
M02*
