G75*
%MOIN*%
%OFA0B0*%
%FSLAX24Y24*%
%IPPOS*%
%LPD*%
%AMOC8*
5,1,8,0,0,1.08239X$1,22.5*
%
%ADD10R,0.0394X0.0433*%
%ADD11R,0.0709X0.0630*%
%ADD12R,0.0433X0.0394*%
%ADD13R,0.0660X0.0660*%
%ADD14OC8,0.0660*%
%ADD15R,0.0600X0.0600*%
%ADD16OC8,0.0600*%
%ADD17C,0.0709*%
%ADD18C,0.0480*%
%ADD19C,0.0100*%
%ADD20C,0.0120*%
%ADD21C,0.0270*%
D10*
X000650Y003015D03*
X000650Y003685D03*
D11*
X001850Y003901D03*
X001850Y002799D03*
D12*
X003150Y003015D03*
X003150Y003685D03*
D13*
X005850Y005850D03*
D14*
X006850Y005850D03*
X006850Y004850D03*
X005850Y004850D03*
X005850Y003850D03*
X006850Y003850D03*
D15*
X000850Y005850D03*
X000850Y000850D03*
D16*
X001850Y000850D03*
X002850Y000850D03*
X003850Y000850D03*
X003850Y005850D03*
X002850Y005850D03*
X001850Y005850D03*
D17*
X004972Y001050D03*
X007728Y001050D03*
D18*
X003850Y001706D02*
X003850Y001994D01*
X002850Y001994D02*
X002850Y001706D01*
X001850Y001706D02*
X001850Y001994D01*
X000850Y001994D02*
X000850Y001706D01*
X000850Y004706D02*
X000850Y004994D01*
X001850Y004994D02*
X001850Y004706D01*
X002850Y004706D02*
X002850Y004994D01*
X003850Y004994D02*
X003850Y004706D01*
D19*
X001212Y000400D02*
X000612Y000400D01*
X000712Y000300D01*
X007888Y000300D01*
X008300Y000712D01*
X008300Y005988D01*
X007888Y006400D01*
X000712Y006400D01*
X000612Y006300D01*
X001212Y006300D01*
X001300Y006212D01*
X001300Y005488D01*
X001212Y005400D01*
X000488Y005400D01*
X000400Y005488D01*
X000400Y006088D01*
X000300Y005988D01*
X000300Y000712D01*
X000400Y000612D01*
X000400Y001212D01*
X000488Y001300D01*
X001212Y001300D01*
X001300Y001212D01*
X001300Y000488D01*
X001212Y000400D01*
X001258Y000446D02*
X001618Y000446D01*
X001664Y000400D02*
X002036Y000400D01*
X002300Y000664D01*
X002300Y001036D01*
X002036Y001300D01*
X001664Y001300D01*
X001400Y001036D01*
X001400Y000664D01*
X001664Y000400D01*
X001520Y000544D02*
X001300Y000544D01*
X001300Y000643D02*
X001421Y000643D01*
X001400Y000741D02*
X001300Y000741D01*
X001300Y000840D02*
X001400Y000840D01*
X001400Y000938D02*
X001300Y000938D01*
X001300Y001037D02*
X001400Y001037D01*
X001499Y001135D02*
X001300Y001135D01*
X001279Y001234D02*
X001597Y001234D01*
X001629Y001375D02*
X001772Y001316D01*
X001928Y001316D01*
X002071Y001375D01*
X002181Y001485D01*
X002240Y001628D01*
X002240Y002072D01*
X002181Y002215D01*
X002071Y002325D01*
X002049Y002334D01*
X002224Y002334D01*
X002262Y002344D01*
X002296Y002364D01*
X002324Y002392D01*
X002344Y002426D01*
X002354Y002464D01*
X002354Y002749D01*
X001900Y002749D01*
X001900Y002849D01*
X001800Y002849D01*
X001800Y003264D01*
X001476Y003264D01*
X001438Y003254D01*
X001404Y003234D01*
X001376Y003206D01*
X001356Y003172D01*
X001346Y003134D01*
X001346Y002849D01*
X001800Y002849D01*
X001800Y002749D01*
X001346Y002749D01*
X001346Y002464D01*
X001356Y002426D01*
X001376Y002392D01*
X001404Y002364D01*
X001438Y002344D01*
X001476Y002334D01*
X001651Y002334D01*
X001629Y002325D01*
X001519Y002215D01*
X001460Y002072D01*
X001460Y001628D01*
X001519Y001485D01*
X001629Y001375D01*
X001574Y001431D02*
X001126Y001431D01*
X001181Y001485D02*
X001071Y001375D01*
X000928Y001316D01*
X000772Y001316D01*
X000629Y001375D01*
X000519Y001485D01*
X000460Y001628D01*
X000460Y002072D01*
X000519Y002215D01*
X000629Y002325D01*
X000772Y002384D01*
X000928Y002384D01*
X001071Y002325D01*
X001181Y002215D01*
X001240Y002072D01*
X001240Y001628D01*
X001181Y001485D01*
X001199Y001529D02*
X001501Y001529D01*
X001460Y001628D02*
X001240Y001628D01*
X001240Y001726D02*
X001460Y001726D01*
X001460Y001825D02*
X001240Y001825D01*
X001240Y001923D02*
X001460Y001923D01*
X001460Y002022D02*
X001240Y002022D01*
X001220Y002120D02*
X001480Y002120D01*
X001523Y002219D02*
X001177Y002219D01*
X001079Y002317D02*
X001621Y002317D01*
X001362Y002416D02*
X000300Y002416D01*
X000300Y002514D02*
X001346Y002514D01*
X001346Y002613D02*
X000300Y002613D01*
X000361Y002679D02*
X000333Y002707D01*
X000313Y002741D01*
X000303Y002779D01*
X000303Y002967D01*
X000602Y002967D01*
X000698Y002967D01*
X000698Y002649D01*
X000867Y002649D01*
X000905Y002659D01*
X000939Y002679D01*
X000967Y002707D01*
X000987Y002741D01*
X000997Y002779D01*
X000997Y002967D01*
X000698Y002967D01*
X000698Y003064D01*
X000997Y003064D01*
X000997Y003252D01*
X000987Y003290D01*
X000967Y003324D01*
X000941Y003350D01*
X000997Y003406D01*
X000997Y003475D01*
X001395Y003475D01*
X001434Y003436D01*
X002266Y003436D01*
X002305Y003475D01*
X002783Y003475D01*
X002783Y003426D01*
X002859Y003350D01*
X002783Y003274D01*
X002783Y002756D01*
X002871Y002669D01*
X002891Y002669D01*
X002865Y002607D01*
X002865Y002493D01*
X002908Y002389D01*
X002913Y002384D01*
X002772Y002384D01*
X002629Y002325D01*
X002519Y002215D01*
X002460Y002072D01*
X002460Y001628D01*
X002519Y001485D01*
X002629Y001375D01*
X002772Y001316D01*
X002928Y001316D01*
X003071Y001375D01*
X003181Y001485D01*
X003240Y001628D01*
X003240Y002072D01*
X003181Y002215D01*
X003131Y002265D01*
X003207Y002265D01*
X003311Y002308D01*
X003392Y002389D01*
X003435Y002493D01*
X003435Y002607D01*
X003409Y002669D01*
X003429Y002669D01*
X003517Y002756D01*
X003517Y003274D01*
X003441Y003350D01*
X003517Y003426D01*
X003517Y003475D01*
X004872Y003475D01*
X005370Y003973D01*
X005370Y003651D01*
X005651Y003370D01*
X006049Y003370D01*
X006330Y003651D01*
X006330Y004049D01*
X006238Y004141D01*
X006559Y004462D01*
X006651Y004370D01*
X007049Y004370D01*
X007330Y004651D01*
X007330Y005049D01*
X007049Y005330D01*
X006651Y005330D01*
X006560Y005239D01*
X006560Y005263D01*
X006667Y005370D01*
X007049Y005370D01*
X007330Y005651D01*
X007330Y006049D01*
X007049Y006330D01*
X006651Y006330D01*
X006370Y006049D01*
X006370Y005667D01*
X006330Y005627D01*
X006330Y006242D01*
X006242Y006330D01*
X005458Y006330D01*
X005370Y006242D01*
X005370Y005458D01*
X005458Y005370D01*
X006140Y005370D01*
X006140Y005239D01*
X006049Y005330D01*
X005651Y005330D01*
X005370Y005049D01*
X005370Y004651D01*
X005461Y004560D01*
X005363Y004560D01*
X005240Y004437D01*
X004698Y003895D01*
X003517Y003895D01*
X003517Y003944D01*
X003429Y004031D01*
X002871Y004031D01*
X002783Y003944D01*
X002783Y003895D01*
X002354Y003895D01*
X002354Y004278D01*
X002266Y004366D01*
X002049Y004366D01*
X002071Y004375D01*
X002181Y004485D01*
X002240Y004628D01*
X002240Y005072D01*
X002181Y005215D01*
X002071Y005325D01*
X001928Y005384D01*
X001772Y005384D01*
X001629Y005325D01*
X001519Y005215D01*
X001460Y005072D01*
X001460Y004628D01*
X001519Y004485D01*
X001629Y004375D01*
X001651Y004366D01*
X001434Y004366D01*
X001346Y004278D01*
X001346Y003895D01*
X000997Y003895D01*
X000997Y003963D01*
X000909Y004051D01*
X000860Y004051D01*
X000860Y004316D01*
X000928Y004316D01*
X001071Y004375D01*
X001181Y004485D01*
X001240Y004628D01*
X001240Y005072D01*
X001181Y005215D01*
X001071Y005325D01*
X000928Y005384D01*
X000772Y005384D01*
X000629Y005325D01*
X000519Y005215D01*
X000460Y005072D01*
X000460Y004657D01*
X000440Y004637D01*
X000440Y004051D01*
X000391Y004051D01*
X000303Y003963D01*
X000303Y003406D01*
X000359Y003350D01*
X000333Y003324D01*
X000313Y003290D01*
X000303Y003252D01*
X000303Y003064D01*
X000602Y003064D01*
X000602Y002967D01*
X000602Y002649D01*
X000433Y002649D01*
X000395Y002659D01*
X000361Y002679D01*
X000331Y002711D02*
X000300Y002711D01*
X000300Y002810D02*
X000303Y002810D01*
X000300Y002908D02*
X000303Y002908D01*
X000300Y003007D02*
X000602Y003007D01*
X000698Y003007D02*
X001346Y003007D01*
X001346Y003105D02*
X000997Y003105D01*
X000997Y003204D02*
X001374Y003204D01*
X001346Y002908D02*
X000997Y002908D01*
X000997Y002810D02*
X001800Y002810D01*
X001800Y002908D02*
X001900Y002908D01*
X001900Y002849D02*
X001900Y003264D01*
X002224Y003264D01*
X002262Y003254D01*
X002296Y003234D01*
X002324Y003206D01*
X002344Y003172D01*
X002354Y003134D01*
X002354Y002849D01*
X001900Y002849D01*
X001900Y002810D02*
X002783Y002810D01*
X002829Y002711D02*
X002354Y002711D01*
X002354Y002613D02*
X002867Y002613D01*
X002865Y002514D02*
X002354Y002514D01*
X002338Y002416D02*
X002897Y002416D01*
X002621Y002317D02*
X002079Y002317D01*
X002177Y002219D02*
X002523Y002219D01*
X002480Y002120D02*
X002220Y002120D01*
X002240Y002022D02*
X002460Y002022D01*
X002460Y001923D02*
X002240Y001923D01*
X002240Y001825D02*
X002460Y001825D01*
X002460Y001726D02*
X002240Y001726D01*
X002240Y001628D02*
X002460Y001628D01*
X002501Y001529D02*
X002199Y001529D01*
X002126Y001431D02*
X002574Y001431D01*
X002664Y001300D02*
X002400Y001036D01*
X002400Y000664D01*
X002664Y000400D01*
X003036Y000400D01*
X003300Y000664D01*
X003300Y001036D01*
X003036Y001300D01*
X002664Y001300D01*
X002734Y001332D02*
X001966Y001332D01*
X002103Y001234D02*
X002597Y001234D01*
X002499Y001135D02*
X002201Y001135D01*
X002300Y001037D02*
X002400Y001037D01*
X002400Y000938D02*
X002300Y000938D01*
X002300Y000840D02*
X002400Y000840D01*
X002400Y000741D02*
X002300Y000741D01*
X002279Y000643D02*
X002421Y000643D01*
X002520Y000544D02*
X002180Y000544D01*
X002082Y000446D02*
X002618Y000446D01*
X003082Y000446D02*
X003618Y000446D01*
X003664Y000400D02*
X003800Y000400D01*
X003800Y000800D01*
X003900Y000800D01*
X003900Y000900D01*
X004300Y000900D01*
X004300Y001036D01*
X004036Y001300D01*
X003900Y001300D01*
X003900Y000900D01*
X003800Y000900D01*
X003800Y001300D01*
X003664Y001300D01*
X003400Y001036D01*
X003400Y000900D01*
X003800Y000900D01*
X003800Y000800D01*
X003400Y000800D01*
X003400Y000664D01*
X003664Y000400D01*
X003800Y000446D02*
X003900Y000446D01*
X003900Y000400D02*
X004036Y000400D01*
X004300Y000664D01*
X004300Y000800D01*
X003900Y000800D01*
X003900Y000400D01*
X003900Y000544D02*
X003800Y000544D01*
X003800Y000643D02*
X003900Y000643D01*
X003900Y000741D02*
X003800Y000741D01*
X003800Y000840D02*
X003300Y000840D01*
X003300Y000938D02*
X003400Y000938D01*
X003400Y001037D02*
X003300Y001037D01*
X003201Y001135D02*
X003499Y001135D01*
X003597Y001234D02*
X003103Y001234D01*
X002966Y001332D02*
X003734Y001332D01*
X003736Y001331D02*
X003812Y001316D01*
X003820Y001316D01*
X003820Y001820D01*
X003880Y001820D01*
X003880Y001880D01*
X004240Y001880D01*
X004240Y002032D01*
X004225Y002108D01*
X004196Y002179D01*
X004153Y002243D01*
X004099Y002297D01*
X004035Y002340D01*
X003964Y002369D01*
X003888Y002384D01*
X003880Y002384D01*
X003880Y001880D01*
X003820Y001880D01*
X003820Y002384D01*
X003812Y002384D01*
X003736Y002369D01*
X003665Y002340D01*
X003601Y002297D01*
X003547Y002243D01*
X003504Y002179D01*
X003475Y002108D01*
X003460Y002032D01*
X003460Y001880D01*
X003820Y001880D01*
X003820Y001820D01*
X003460Y001820D01*
X003460Y001668D01*
X003475Y001592D01*
X003504Y001521D01*
X003547Y001457D01*
X003601Y001403D01*
X003665Y001360D01*
X003736Y001331D01*
X003820Y001332D02*
X003880Y001332D01*
X003880Y001316D02*
X003888Y001316D01*
X003964Y001331D01*
X004035Y001360D01*
X004099Y001403D01*
X004153Y001457D01*
X004196Y001521D01*
X004225Y001592D01*
X004240Y001668D01*
X004240Y001820D01*
X003880Y001820D01*
X003880Y001316D01*
X003900Y001234D02*
X003800Y001234D01*
X003800Y001135D02*
X003900Y001135D01*
X003900Y001037D02*
X003800Y001037D01*
X003800Y000938D02*
X003900Y000938D01*
X003900Y000840D02*
X004513Y000840D01*
X004544Y000764D02*
X004468Y000950D01*
X004468Y001150D01*
X004544Y001336D01*
X004686Y001478D01*
X004872Y001554D01*
X005072Y001554D01*
X005258Y001478D01*
X005400Y001336D01*
X005476Y001150D01*
X005476Y000950D01*
X005400Y000764D01*
X005258Y000622D01*
X005072Y000546D01*
X004872Y000546D01*
X004686Y000622D01*
X004544Y000764D01*
X004568Y000741D02*
X004300Y000741D01*
X004279Y000643D02*
X004666Y000643D01*
X004473Y000938D02*
X004300Y000938D01*
X004300Y001037D02*
X004468Y001037D01*
X004468Y001135D02*
X004201Y001135D01*
X004103Y001234D02*
X004502Y001234D01*
X004543Y001332D02*
X003966Y001332D01*
X003880Y001431D02*
X003820Y001431D01*
X003820Y001529D02*
X003880Y001529D01*
X003880Y001628D02*
X003820Y001628D01*
X003820Y001726D02*
X003880Y001726D01*
X003880Y001825D02*
X008300Y001825D01*
X008300Y001726D02*
X004240Y001726D01*
X004232Y001628D02*
X008300Y001628D01*
X008300Y001529D02*
X007886Y001529D01*
X007922Y001517D02*
X007846Y001542D01*
X007778Y001553D01*
X007778Y001100D01*
X008231Y001100D01*
X008220Y001168D01*
X008195Y001244D01*
X008159Y001314D01*
X008113Y001379D01*
X008057Y001435D01*
X007992Y001481D01*
X007922Y001517D01*
X008061Y001431D02*
X008300Y001431D01*
X008300Y001332D02*
X008146Y001332D01*
X008199Y001234D02*
X008300Y001234D01*
X008300Y001135D02*
X008225Y001135D01*
X008300Y001037D02*
X007778Y001037D01*
X007778Y001000D02*
X007778Y001100D01*
X007678Y001100D01*
X007678Y001553D01*
X007610Y001542D01*
X007534Y001517D01*
X007464Y001481D01*
X007399Y001435D01*
X007343Y001379D01*
X007297Y001314D01*
X007261Y001244D01*
X007236Y001168D01*
X007225Y001100D01*
X007678Y001100D01*
X007678Y001000D01*
X007778Y001000D01*
X008231Y001000D01*
X008220Y000932D01*
X008195Y000856D01*
X008159Y000786D01*
X008113Y000721D01*
X008057Y000665D01*
X007992Y000619D01*
X007922Y000583D01*
X007846Y000558D01*
X007778Y000547D01*
X007778Y001000D01*
X007778Y000938D02*
X007678Y000938D01*
X007678Y001000D02*
X007678Y000547D01*
X007610Y000558D01*
X007534Y000583D01*
X007464Y000619D01*
X007399Y000665D01*
X007343Y000721D01*
X007297Y000786D01*
X007261Y000856D01*
X007236Y000932D01*
X007225Y001000D01*
X007678Y001000D01*
X007678Y001037D02*
X005476Y001037D01*
X005476Y001135D02*
X007231Y001135D01*
X007257Y001234D02*
X005442Y001234D01*
X005401Y001332D02*
X007309Y001332D01*
X007395Y001431D02*
X005305Y001431D01*
X005134Y001529D02*
X007570Y001529D01*
X007678Y001529D02*
X007778Y001529D01*
X007778Y001431D02*
X007678Y001431D01*
X007678Y001332D02*
X007778Y001332D01*
X007778Y001234D02*
X007678Y001234D01*
X007678Y001135D02*
X007778Y001135D01*
X007778Y000840D02*
X007678Y000840D01*
X007678Y000741D02*
X007778Y000741D01*
X007778Y000643D02*
X007678Y000643D01*
X007431Y000643D02*
X005278Y000643D01*
X005376Y000741D02*
X007329Y000741D01*
X007269Y000840D02*
X005431Y000840D01*
X005472Y000938D02*
X007235Y000938D01*
X007935Y000347D02*
X000665Y000347D01*
X000400Y000643D02*
X000370Y000643D01*
X000400Y000741D02*
X000300Y000741D01*
X000300Y000840D02*
X000400Y000840D01*
X000400Y000938D02*
X000300Y000938D01*
X000300Y001037D02*
X000400Y001037D01*
X000400Y001135D02*
X000300Y001135D01*
X000300Y001234D02*
X000421Y001234D01*
X000300Y001332D02*
X000734Y001332D01*
X000574Y001431D02*
X000300Y001431D01*
X000300Y001529D02*
X000501Y001529D01*
X000460Y001628D02*
X000300Y001628D01*
X000300Y001726D02*
X000460Y001726D01*
X000460Y001825D02*
X000300Y001825D01*
X000300Y001923D02*
X000460Y001923D01*
X000460Y002022D02*
X000300Y002022D01*
X000300Y002120D02*
X000480Y002120D01*
X000523Y002219D02*
X000300Y002219D01*
X000300Y002317D02*
X000621Y002317D01*
X000602Y002711D02*
X000698Y002711D01*
X000698Y002810D02*
X000602Y002810D01*
X000602Y002908D02*
X000698Y002908D01*
X000969Y002711D02*
X001346Y002711D01*
X001800Y003007D02*
X001900Y003007D01*
X001900Y003105D02*
X001800Y003105D01*
X001800Y003204D02*
X001900Y003204D01*
X002326Y003204D02*
X002783Y003204D01*
X002811Y003302D02*
X000980Y003302D01*
X000991Y003401D02*
X002809Y003401D01*
X002783Y003105D02*
X002354Y003105D01*
X002354Y003007D02*
X002783Y003007D01*
X002783Y002908D02*
X002354Y002908D01*
X003177Y002219D02*
X003531Y002219D01*
X003631Y002317D02*
X003320Y002317D01*
X003403Y002416D02*
X008300Y002416D01*
X008300Y002514D02*
X003435Y002514D01*
X003433Y002613D02*
X008300Y002613D01*
X008300Y002711D02*
X003471Y002711D01*
X003517Y002810D02*
X008300Y002810D01*
X008300Y002908D02*
X003517Y002908D01*
X003517Y003007D02*
X008300Y003007D01*
X008300Y003105D02*
X003517Y003105D01*
X003517Y003204D02*
X008300Y003204D01*
X008300Y003302D02*
X003489Y003302D01*
X003491Y003401D02*
X005621Y003401D01*
X005522Y003499D02*
X004896Y003499D01*
X004994Y003598D02*
X005424Y003598D01*
X005370Y003696D02*
X005093Y003696D01*
X005191Y003795D02*
X005370Y003795D01*
X005370Y003893D02*
X005290Y003893D01*
X004992Y004189D02*
X002354Y004189D01*
X002346Y004287D02*
X005090Y004287D01*
X005189Y004386D02*
X004081Y004386D01*
X004071Y004375D02*
X004181Y004485D01*
X004240Y004628D01*
X004240Y005072D01*
X004181Y005215D01*
X004071Y005325D01*
X003928Y005384D01*
X003772Y005384D01*
X003629Y005325D01*
X003519Y005215D01*
X003460Y005072D01*
X003460Y004628D01*
X003519Y004485D01*
X003629Y004375D01*
X003772Y004316D01*
X003928Y004316D01*
X004071Y004375D01*
X004180Y004484D02*
X005287Y004484D01*
X005439Y004583D02*
X004221Y004583D01*
X004240Y004681D02*
X005370Y004681D01*
X005370Y004780D02*
X004240Y004780D01*
X004240Y004878D02*
X005370Y004878D01*
X005370Y004977D02*
X004240Y004977D01*
X004239Y005075D02*
X005396Y005075D01*
X005495Y005174D02*
X004198Y005174D01*
X004124Y005272D02*
X005593Y005272D01*
X005457Y005371D02*
X003960Y005371D01*
X004036Y005400D02*
X004300Y005664D01*
X004300Y006036D01*
X004036Y006300D01*
X003664Y006300D01*
X003400Y006036D01*
X003400Y005664D01*
X003664Y005400D01*
X004036Y005400D01*
X004105Y005469D02*
X005370Y005469D01*
X005370Y005568D02*
X004204Y005568D01*
X004300Y005666D02*
X005370Y005666D01*
X005370Y005765D02*
X004300Y005765D01*
X004300Y005863D02*
X005370Y005863D01*
X005370Y005962D02*
X004300Y005962D01*
X004276Y006060D02*
X005370Y006060D01*
X005370Y006159D02*
X004178Y006159D01*
X004079Y006257D02*
X005385Y006257D01*
X006315Y006257D02*
X006578Y006257D01*
X006480Y006159D02*
X006330Y006159D01*
X006330Y006060D02*
X006381Y006060D01*
X006370Y005962D02*
X006330Y005962D01*
X006330Y005863D02*
X006370Y005863D01*
X006370Y005765D02*
X006330Y005765D01*
X006330Y005666D02*
X006369Y005666D01*
X006569Y005272D02*
X006593Y005272D01*
X006140Y005272D02*
X006107Y005272D01*
X007049Y005371D02*
X008300Y005371D01*
X008300Y005469D02*
X007148Y005469D01*
X007246Y005568D02*
X008300Y005568D01*
X008300Y005666D02*
X007330Y005666D01*
X007330Y005765D02*
X008300Y005765D01*
X008300Y005863D02*
X007330Y005863D01*
X007330Y005962D02*
X008300Y005962D01*
X008228Y006060D02*
X007319Y006060D01*
X007220Y006159D02*
X008129Y006159D01*
X008031Y006257D02*
X007122Y006257D01*
X007932Y006356D02*
X000668Y006356D01*
X000400Y006060D02*
X000372Y006060D01*
X000400Y005962D02*
X000300Y005962D01*
X000300Y005863D02*
X000400Y005863D01*
X000400Y005765D02*
X000300Y005765D01*
X000300Y005666D02*
X000400Y005666D01*
X000400Y005568D02*
X000300Y005568D01*
X000300Y005469D02*
X000419Y005469D01*
X000300Y005371D02*
X000740Y005371D01*
X000576Y005272D02*
X000300Y005272D01*
X000300Y005174D02*
X000502Y005174D01*
X000461Y005075D02*
X000300Y005075D01*
X000300Y004977D02*
X000460Y004977D01*
X000460Y004878D02*
X000300Y004878D01*
X000300Y004780D02*
X000460Y004780D01*
X000460Y004681D02*
X000300Y004681D01*
X000300Y004583D02*
X000440Y004583D01*
X000440Y004484D02*
X000300Y004484D01*
X000300Y004386D02*
X000440Y004386D01*
X000440Y004287D02*
X000300Y004287D01*
X000300Y004189D02*
X000440Y004189D01*
X000440Y004090D02*
X000300Y004090D01*
X000300Y003992D02*
X000331Y003992D01*
X000303Y003893D02*
X000300Y003893D01*
X000300Y003795D02*
X000303Y003795D01*
X000300Y003696D02*
X000303Y003696D01*
X000300Y003598D02*
X000303Y003598D01*
X000300Y003499D02*
X000303Y003499D01*
X000300Y003401D02*
X000309Y003401D01*
X000300Y003302D02*
X000320Y003302D01*
X000303Y003204D02*
X000300Y003204D01*
X000300Y003105D02*
X000303Y003105D01*
X000969Y003992D02*
X001346Y003992D01*
X001346Y004090D02*
X000860Y004090D01*
X000860Y004189D02*
X001346Y004189D01*
X001354Y004287D02*
X000860Y004287D01*
X001081Y004386D02*
X001619Y004386D01*
X001520Y004484D02*
X001180Y004484D01*
X001221Y004583D02*
X001479Y004583D01*
X001460Y004681D02*
X001240Y004681D01*
X001240Y004780D02*
X001460Y004780D01*
X001460Y004878D02*
X001240Y004878D01*
X001240Y004977D02*
X001460Y004977D01*
X001461Y005075D02*
X001239Y005075D01*
X001198Y005174D02*
X001502Y005174D01*
X001576Y005272D02*
X001124Y005272D01*
X000960Y005371D02*
X001740Y005371D01*
X001664Y005400D02*
X002036Y005400D01*
X002300Y005664D01*
X002300Y006036D01*
X002036Y006300D01*
X001664Y006300D01*
X001400Y006036D01*
X001400Y005664D01*
X001664Y005400D01*
X001595Y005469D02*
X001281Y005469D01*
X001300Y005568D02*
X001496Y005568D01*
X001400Y005666D02*
X001300Y005666D01*
X001300Y005765D02*
X001400Y005765D01*
X001400Y005863D02*
X001300Y005863D01*
X001300Y005962D02*
X001400Y005962D01*
X001424Y006060D02*
X001300Y006060D01*
X001300Y006159D02*
X001522Y006159D01*
X001621Y006257D02*
X001255Y006257D01*
X002079Y006257D02*
X002621Y006257D01*
X002664Y006300D02*
X002400Y006036D01*
X002400Y005664D01*
X002664Y005400D01*
X003036Y005400D01*
X003300Y005664D01*
X003300Y006036D01*
X003036Y006300D01*
X002664Y006300D01*
X002522Y006159D02*
X002178Y006159D01*
X002276Y006060D02*
X002424Y006060D01*
X002400Y005962D02*
X002300Y005962D01*
X002300Y005863D02*
X002400Y005863D01*
X002400Y005765D02*
X002300Y005765D01*
X002300Y005666D02*
X002400Y005666D01*
X002496Y005568D02*
X002204Y005568D01*
X002105Y005469D02*
X002595Y005469D01*
X002740Y005371D02*
X001960Y005371D01*
X002124Y005272D02*
X002576Y005272D01*
X002629Y005325D02*
X002519Y005215D01*
X002460Y005072D01*
X002460Y004628D01*
X002519Y004485D01*
X002629Y004375D01*
X002772Y004316D01*
X002928Y004316D01*
X003071Y004375D01*
X003181Y004485D01*
X003240Y004628D01*
X003240Y005072D01*
X003181Y005215D01*
X003071Y005325D01*
X002928Y005384D01*
X002772Y005384D01*
X002629Y005325D01*
X002502Y005174D02*
X002198Y005174D01*
X002239Y005075D02*
X002461Y005075D01*
X002460Y004977D02*
X002240Y004977D01*
X002240Y004878D02*
X002460Y004878D01*
X002460Y004780D02*
X002240Y004780D01*
X002240Y004681D02*
X002460Y004681D01*
X002479Y004583D02*
X002221Y004583D01*
X002180Y004484D02*
X002520Y004484D01*
X002619Y004386D02*
X002081Y004386D01*
X002354Y004090D02*
X004893Y004090D01*
X004795Y003992D02*
X003469Y003992D01*
X003619Y004386D02*
X003081Y004386D01*
X003180Y004484D02*
X003520Y004484D01*
X003479Y004583D02*
X003221Y004583D01*
X003240Y004681D02*
X003460Y004681D01*
X003460Y004780D02*
X003240Y004780D01*
X003240Y004878D02*
X003460Y004878D01*
X003460Y004977D02*
X003240Y004977D01*
X003239Y005075D02*
X003461Y005075D01*
X003502Y005174D02*
X003198Y005174D01*
X003124Y005272D02*
X003576Y005272D01*
X003740Y005371D02*
X002960Y005371D01*
X003105Y005469D02*
X003595Y005469D01*
X003496Y005568D02*
X003204Y005568D01*
X003300Y005666D02*
X003400Y005666D01*
X003400Y005765D02*
X003300Y005765D01*
X003300Y005863D02*
X003400Y005863D01*
X003400Y005962D02*
X003300Y005962D01*
X003276Y006060D02*
X003424Y006060D01*
X003522Y006159D02*
X003178Y006159D01*
X003079Y006257D02*
X003621Y006257D01*
X002831Y003992D02*
X002354Y003992D01*
X003820Y002317D02*
X003880Y002317D01*
X003880Y002219D02*
X003820Y002219D01*
X003820Y002120D02*
X003880Y002120D01*
X003880Y002022D02*
X003820Y002022D01*
X003820Y001923D02*
X003880Y001923D01*
X003820Y001825D02*
X003240Y001825D01*
X003240Y001726D02*
X003460Y001726D01*
X003468Y001628D02*
X003240Y001628D01*
X003199Y001529D02*
X003501Y001529D01*
X003574Y001431D02*
X003126Y001431D01*
X003240Y001923D02*
X003460Y001923D01*
X003460Y002022D02*
X003240Y002022D01*
X003220Y002120D02*
X003480Y002120D01*
X004069Y002317D02*
X008300Y002317D01*
X008300Y002219D02*
X004169Y002219D01*
X004220Y002120D02*
X008300Y002120D01*
X008300Y002022D02*
X004240Y002022D01*
X004240Y001923D02*
X008300Y001923D01*
X008300Y000938D02*
X008221Y000938D01*
X008187Y000840D02*
X008300Y000840D01*
X008300Y000741D02*
X008127Y000741D01*
X008025Y000643D02*
X008230Y000643D01*
X008132Y000544D02*
X004180Y000544D01*
X004082Y000446D02*
X008033Y000446D01*
X004811Y001529D02*
X004199Y001529D01*
X004126Y001431D02*
X004639Y001431D01*
X003520Y000544D02*
X003180Y000544D01*
X003279Y000643D02*
X003421Y000643D01*
X003400Y000741D02*
X003300Y000741D01*
X001734Y001332D02*
X000966Y001332D01*
X006079Y003401D02*
X006621Y003401D01*
X006651Y003370D02*
X006370Y003651D01*
X006370Y003800D01*
X006800Y003800D01*
X006800Y003900D01*
X006800Y004330D01*
X006651Y004330D01*
X006370Y004049D01*
X006370Y003900D01*
X006800Y003900D01*
X006900Y003900D01*
X006900Y004330D01*
X007049Y004330D01*
X007330Y004049D01*
X007330Y003900D01*
X006900Y003900D01*
X006900Y003800D01*
X007330Y003800D01*
X007330Y003651D01*
X007049Y003370D01*
X006900Y003370D01*
X006900Y003800D01*
X006800Y003800D01*
X006800Y003370D01*
X006651Y003370D01*
X006800Y003401D02*
X006900Y003401D01*
X006900Y003499D02*
X006800Y003499D01*
X006800Y003598D02*
X006900Y003598D01*
X006900Y003696D02*
X006800Y003696D01*
X006800Y003795D02*
X006900Y003795D01*
X006900Y003893D02*
X008300Y003893D01*
X008300Y003795D02*
X007330Y003795D01*
X007330Y003696D02*
X008300Y003696D01*
X008300Y003598D02*
X007276Y003598D01*
X007178Y003499D02*
X008300Y003499D01*
X008300Y003401D02*
X007079Y003401D01*
X006522Y003499D02*
X006178Y003499D01*
X006276Y003598D02*
X006424Y003598D01*
X006370Y003696D02*
X006330Y003696D01*
X006330Y003795D02*
X006370Y003795D01*
X006330Y003893D02*
X006800Y003893D01*
X006800Y003992D02*
X006900Y003992D01*
X006900Y004090D02*
X006800Y004090D01*
X006800Y004189D02*
X006900Y004189D01*
X006900Y004287D02*
X006800Y004287D01*
X006636Y004386D02*
X006482Y004386D01*
X006384Y004287D02*
X006608Y004287D01*
X006510Y004189D02*
X006285Y004189D01*
X006289Y004090D02*
X006411Y004090D01*
X006370Y003992D02*
X006330Y003992D01*
X007092Y004287D02*
X008300Y004287D01*
X008300Y004189D02*
X007190Y004189D01*
X007289Y004090D02*
X008300Y004090D01*
X008300Y003992D02*
X007330Y003992D01*
X007064Y004386D02*
X008300Y004386D01*
X008300Y004484D02*
X007163Y004484D01*
X007261Y004583D02*
X008300Y004583D01*
X008300Y004681D02*
X007330Y004681D01*
X007330Y004780D02*
X008300Y004780D01*
X008300Y004878D02*
X007330Y004878D01*
X007330Y004977D02*
X008300Y004977D01*
X008300Y005075D02*
X007304Y005075D01*
X007205Y005174D02*
X008300Y005174D01*
X008300Y005272D02*
X007107Y005272D01*
D20*
X006850Y005850D02*
X006350Y005350D01*
X006350Y004550D01*
X006150Y004350D01*
X005450Y004350D01*
X004785Y003685D01*
X003150Y003685D01*
X001967Y003685D01*
X001850Y003901D01*
X001533Y003685D01*
X000650Y003685D01*
X000650Y004550D01*
X000850Y004750D01*
X000850Y004850D01*
X001806Y003985D02*
X001850Y003901D01*
X003150Y003015D02*
X003150Y002550D01*
D21*
X003150Y002550D03*
M02*
