G75*
%MOIN*%
%OFA0B0*%
%FSLAX24Y24*%
%IPPOS*%
%LPD*%
%AMOC8*
5,1,8,0,0,1.08239X$1,22.5*
%
%ADD10R,0.0660X0.0660*%
%ADD11OC8,0.0660*%
%ADD12R,0.0600X0.0600*%
%ADD13OC8,0.0600*%
%ADD14C,0.0709*%
%ADD15C,0.0480*%
%ADD16C,0.0120*%
%ADD17C,0.0270*%
D10*
X005850Y005850D03*
D11*
X006850Y005850D03*
X006850Y004850D03*
X005850Y004850D03*
X005850Y003850D03*
X006850Y003850D03*
D12*
X000850Y000850D03*
X000850Y005850D03*
D13*
X001850Y005850D03*
X002850Y005850D03*
X003850Y005850D03*
X003850Y000850D03*
X002850Y000850D03*
X001850Y000850D03*
D14*
X004972Y001050D03*
X007728Y001050D03*
D15*
X003850Y001706D02*
X003850Y001994D01*
X002850Y001994D02*
X002850Y001706D01*
X001850Y001706D02*
X001850Y001994D01*
X000850Y001994D02*
X000850Y001706D01*
X000850Y004706D02*
X000850Y004994D01*
X001850Y004994D02*
X001850Y004706D01*
X002850Y004706D02*
X002850Y004994D01*
X003850Y004994D02*
X003850Y004706D01*
D16*
X003850Y004850D02*
X004350Y004850D01*
X004850Y005350D01*
X006350Y005350D01*
X006850Y004850D01*
X005850Y004850D02*
X005350Y004850D01*
X004650Y004150D01*
X002250Y004150D01*
X001850Y004650D01*
X001850Y004850D01*
X001850Y005850D01*
X000850Y005850D02*
X000850Y004850D01*
X002850Y004850D02*
X002850Y005850D01*
X003350Y006350D01*
X004550Y006350D01*
X005050Y005850D01*
X005850Y005850D01*
X003850Y005850D02*
X003850Y004850D01*
X005850Y003850D02*
X004550Y002550D01*
X004972Y002128D01*
X004972Y001050D01*
X004550Y002550D02*
X003150Y002550D01*
X001350Y002550D01*
X000850Y002050D01*
X000850Y001850D01*
X000850Y000850D01*
X001850Y000850D02*
X001850Y001850D01*
X002850Y001850D02*
X002850Y000850D01*
D17*
X003150Y002550D03*
M02*
